<svg xmlns="http://www.w3.org/2000/svg" viewBox="0 0 48 48"><path fill="#7c4dff" d="M34.5,27c-4.1,0-7.5-3.4-7.5-7.5s3.4-7.5,7.5-7.5s7.5,3.4,7.5,7.5S38.6,27,34.5,27z M34.5,16 c-1.9,0-3.5,1.6-3.5,3.5s1.6,3.5,3.5,3.5s3.5-1.6,3.5-3.5S36.4,16,34.5,16z"/><path fill="#7c4dff" d="M38 19.3C38 19 36.8 12 23.4 12c-9 0-14 4.4-14.1 4.5l-2.7-3C6.9 13.3 12.8 8 23.4 8 40.6 8 41.9 18.3 42 18.8L38 19.3zM13.5 36C9.4 36 6 32.6 6 28.5S9.4 21 13.5 21s7.5 3.4 7.5 7.5S17.6 36 13.5 36zM13.5 25c-1.9 0-3.5 1.6-3.5 3.5s1.6 3.5 3.5 3.5 3.5-1.6 3.5-3.5S15.4 25 13.5 25z"/><path fill="#7c4dff" d="M24.6,40C7.4,40,6.1,29.7,6,29.2l4-0.5C10,29,11.2,36,24.6,36c9,0,14-4.4,14.1-4.5l2.7,3 C41.1,34.7,35.2,40,24.6,40z"/><path fill="#512da8" d="M30.9 12.9c1.1-.6 2.3-.9 3.6-.9 2.5 0 4.8 1.3 6.1 3.2-1.1-1.7-2.9-3.7-6.2-5.2-3.2-.6-7.3.2-10.1 2C27 12.1 29.1 12.4 30.9 12.9zM17.1 35.1c-1.1.6-2.3.9-3.6.9-2.5 0-4.8-1.3-6.1-3.2 1.1 1.7 2.9 3.7 6.2 5.2 3.2.6 7.3-.2 10.1-2C21 35.9 18.9 35.6 17.1 35.1z"/></svg>